<svg width="31" height="31" viewBox="0 0 31 31" fill="none" xmlns="http://www.w3.org/2000/svg">
<path d="M15.0645 6.12109C10.9272 6.12109 7.56201 9.33913 7.56201 13.2978C7.56201 18.9215 14.3578 24.7269 14.647 24.9706C14.7652 25.0709 14.9136 25.1211 15.062 25.1211C15.2104 25.1211 15.3588 25.0709 15.477 24.9706C15.7662 24.7269 22.562 18.9192 22.562 13.2954C22.5645 9.33913 19.1993 6.12109 15.0645 6.12109ZM15.0645 17.2062C12.7657 17.2062 10.897 15.4312 10.897 13.2476C10.897 11.064 12.7657 9.28896 15.0645 9.28896C17.3633 9.28896 19.232 11.064 19.232 13.2476C19.232 15.4312 17.3608 17.2062 15.0645 17.2062Z" fill="#13A6BA"/>
</svg>
