<svg width="30" height="30" viewBox="0 0 30 30" fill="none" xmlns="http://www.w3.org/2000/svg">
<path d="M22.257 5.40137H8.46078C7.1464 5.40137 6.07788 6.4088 6.07788 7.86617V22.1366C6.07788 23.5939 7.1464 24.6014 8.46078 24.6014H22.257C23.5713 24.6014 24.6399 23.5939 24.6399 22.1366V7.86617C24.6399 6.4088 23.5713 5.40137 22.257 5.40137ZM18.7677 8.40412C18.7677 7.92485 19.146 7.54339 19.5999 7.54339H21.6991C22.1624 7.54339 22.5312 7.93463 22.5312 8.40412V10.4777C22.5312 10.9569 22.153 11.3384 21.6991 11.3384H19.5999C19.1365 11.3384 18.7677 10.9472 18.7677 10.4777V8.40412ZM15.3825 11.2308C17.4439 11.2308 19.1081 12.9034 19.1081 14.9671C19.1081 17.0309 17.4344 18.7035 15.3825 18.7035C13.3211 18.7035 11.6569 17.0309 11.6569 14.9671C11.6569 12.9034 13.3211 11.2308 15.3825 11.2308ZM22.5406 21.6377C22.5406 22.0583 22.2097 22.4007 21.8031 22.4007H8.87683C8.47023 22.4007 8.13927 22.0583 8.13927 21.6377V13.5196H9.84133C9.69004 14.0379 9.60494 14.5955 9.60494 15.1628C9.60494 18.3611 12.1864 20.9433 15.3731 20.9433C18.5597 20.9433 21.1412 18.3513 21.1412 15.1628C21.1412 14.5955 21.0561 14.0379 20.9048 13.5196H22.5406V21.6377Z" fill="#C8F3F9"/>
</svg>
