<svg width="30" height="30" viewBox="0 0 30 30" fill="none" xmlns="http://www.w3.org/2000/svg">
<path d="M24.1433 24.4334L24.1526 17.4557C24.1526 14.0392 23.4435 11.4141 19.5807 11.4141C17.724 11.4141 16.483 12.466 15.9698 13.4697H15.9139V11.7229H12.2563V24.4238H16.0632V18.1409C16.0632 16.4809 16.3711 14.8788 18.3491 14.8788C20.2992 14.8788 20.3365 16.7704 20.3365 18.2471V24.4334H24.1433Z" fill="#C8F3F9"/>
<path d="M9.87717 11.7227H6.06104V24.4235H9.87717V11.7227Z" fill="#C8F3F9"/>
<path d="M7.96448 5.40137C6.74219 5.40137 5.75317 6.42439 5.75317 7.68868C5.75317 8.95298 6.74219 9.9953 7.96448 9.9953C9.18676 9.9953 10.1758 8.95298 10.1758 7.68868C10.1758 6.42439 9.18676 5.40137 7.96448 5.40137Z" fill="#C8F3F9"/>
</svg>
