<svg width="30" height="30" viewBox="0 0 30 30" fill="none" xmlns="http://www.w3.org/2000/svg">
<path d="M23.4727 10.0427L23.4839 10.646C23.4839 16.8422 18.9346 24.0014 10.6184 24.0014C8.06988 24.0014 5.68903 23.2239 3.68823 21.878C4.03474 21.9244 4.39242 21.9476 4.76129 21.9476C6.88504 21.9476 8.82996 21.1934 10.3725 19.9286C8.39403 19.8938 6.72855 18.5362 6.14732 16.6681C6.42676 16.7261 6.7062 16.7493 6.99682 16.7493C7.41039 16.7493 7.81279 16.6913 8.18165 16.5869C6.11378 16.1576 4.56009 14.2662 4.56009 11.992V11.9456C5.16368 12.2937 5.8567 12.5026 6.6056 12.5258C5.39841 11.6903 4.6048 10.2399 4.6048 8.62707C4.6048 7.76843 4.82835 6.9562 5.21957 6.26001C7.43275 9.1028 10.7749 10.9593 14.5306 11.1566C14.4523 10.8201 14.4188 10.4604 14.4188 10.0891C14.4188 7.50155 16.4308 5.40137 18.9346 5.40137C20.2312 5.40137 21.416 5.96993 22.2432 6.87498C23.2603 6.66612 24.2328 6.28321 25.1158 5.74946C24.7805 6.84017 24.0651 7.76843 23.1262 8.34859C24.0428 8.23256 24.9146 7.97729 25.7306 7.60598C25.1158 8.54585 24.3446 9.38128 23.4727 10.0427Z" fill="#C8F3F9"/>
</svg>
