<svg width="132" height="27" viewBox="0 0 132 27" fill="none" xmlns="http://www.w3.org/2000/svg">
<path d="M18.9105 26.9041C15.931 26.9041 12.9215 26.9041 9.94205 26.9041C6.96261 26.9041 3.92298 26.9041 0.913452 26.9041V0.0661621H9.49062V7.21444C11.0556 7.21444 12.6506 7.21444 14.2156 7.21444C15.7805 7.21444 17.3756 7.21444 18.9405 7.21444C20.2346 7.21444 21.0171 7.62929 21.0171 7.62929C21.3181 7.75694 21.619 7.9165 21.8598 8.10797C22.1006 8.29944 22.3714 8.52283 22.5821 8.77812C23.0034 9.28871 23.3345 9.92695 23.5752 10.6609C23.6354 11.012 23.7257 11.363 23.7859 11.7778C23.8461 12.1927 23.8762 12.6076 23.8762 13.0543V21.1919C23.8762 21.6705 23.8461 22.1173 23.7859 22.5003C23.7257 22.8832 23.6354 23.2661 23.515 23.5853C23.3646 24.0001 23.2141 24.3831 23.0034 24.7341C22.7927 25.0851 22.5821 25.3404 22.3112 25.5638C22.1006 25.8191 21.8297 26.0106 21.5588 26.202C21.288 26.3935 21.0171 26.4893 20.7463 26.585C20.7463 26.585 19.8133 26.9041 18.9105 26.9041ZM14.2457 11.0758H10.5139C10.3634 11.0758 10.243 11.1077 10.1226 11.2034C10.0022 11.2992 9.88186 11.3949 9.79157 11.5226C9.6411 11.6502 9.55081 11.7778 9.49062 11.9374C9.43043 12.097 9.40033 12.2565 9.40033 12.4161V21.8301C9.40033 21.9897 9.43043 22.1173 9.52071 22.245C9.611 22.3726 9.67119 22.5003 9.76148 22.596C9.88186 22.7236 10.0022 22.8194 10.1226 22.8832C10.243 22.947 10.3935 23.0428 10.544 23.0428H14.2758C14.3962 23.0428 14.5165 23.0109 14.6369 22.9151C14.7573 22.8194 14.8777 22.7556 14.968 22.6279C15.0583 22.5003 15.1485 22.3726 15.2087 22.245C15.2689 22.1173 15.299 21.9578 15.299 21.8301V12.3842C15.299 12.2565 15.2689 12.1289 15.2087 11.9693C15.1485 11.8098 15.0883 11.6502 14.968 11.5545C14.8476 11.4587 14.7573 11.3311 14.6369 11.2353C14.5165 11.1396 14.3962 11.0758 14.2457 11.0758Z" fill="#021112"/>
<path d="M26.5547 7.21436H34.3494V8.65039C34.4397 8.45892 34.56 8.26745 34.6804 8.07598C34.8008 7.88451 34.9513 7.75686 35.0717 7.62921C35.2221 7.50156 35.4027 7.40583 35.5532 7.342C35.7037 7.27818 35.8842 7.21436 36.0949 7.21436H44.3711C44.7623 7.21436 45.1235 7.27818 45.4244 7.43774C45.7254 7.5973 45.9662 7.78877 46.1467 8.01215C46.2972 8.17171 46.4477 8.36319 46.538 8.55466C46.6283 8.74613 46.7185 8.90569 46.7787 9.06525C46.8389 9.22481 46.869 9.32054 46.8991 9.38437C46.9292 9.44819 46.8991 9.44819 46.869 9.35246C46.9292 9.09716 46.9894 8.84187 47.0496 8.61848C47.1098 8.3951 47.2302 8.17171 47.3505 7.98024C47.4709 7.72495 47.6214 7.53347 47.802 7.40583C47.9825 7.27818 48.2233 7.21436 48.4641 7.21436H55.2656C55.7471 7.21436 56.1986 7.27818 56.5898 7.37392C56.981 7.46965 57.3121 7.62921 57.6431 7.85259C57.9742 8.07598 58.215 8.29936 58.4557 8.55466C58.6965 8.80995 58.8771 9.12907 59.0576 9.44819C59.2081 9.7354 59.3285 10.0226 59.4188 10.3417C59.5091 10.6608 59.5993 10.98 59.6595 11.2991C59.7197 11.7139 59.7799 12.1288 59.81 12.5437C59.8401 12.9585 59.8702 13.3415 59.8702 13.7244V26.8721H52.0755V12.1607C52.0755 12.0011 52.0454 11.8416 51.9852 11.7139C51.925 11.5863 51.8648 11.4906 51.8047 11.3629C51.7144 11.2991 51.6241 11.2353 51.5037 11.1714C51.3833 11.1076 51.293 11.1076 51.1727 11.1076H47.9224C47.802 11.1076 47.7117 11.1395 47.5913 11.2033C47.4709 11.2672 47.4107 11.331 47.3505 11.3948C47.2904 11.4906 47.2302 11.6182 47.17 11.7459C47.1098 11.8735 47.1098 11.9692 47.1098 12.0969V26.8721H39.285V12.2245C39.285 12.0969 39.2549 11.9692 39.2248 11.8097C39.1947 11.6501 39.1345 11.5225 39.0743 11.4267C38.9841 11.2991 38.8637 11.2033 38.7433 11.1395C38.6229 11.0757 38.4423 11.0119 38.2618 11.0119H35.1619C35.0416 11.0119 34.9212 11.0438 34.8309 11.1395C34.7406 11.2353 34.6503 11.331 34.56 11.4586C34.4698 11.5863 34.4397 11.7139 34.3795 11.8416C34.3193 11.9692 34.3193 12.0969 34.3193 12.2245V26.8721H26.5547V7.21436Z" fill="#021112"/>
<path d="M85.5112 13.9795V26.84H77.9573L77.4156 24.7338C77.3855 24.8934 77.3554 25.021 77.2952 25.1167C77.235 25.2125 77.1748 25.3401 77.1447 25.4359C77.0845 25.5954 77.0243 25.7231 76.904 25.8507C76.7836 25.9784 76.7234 26.0741 76.6331 26.1698C76.3622 26.3932 76.0914 26.5847 75.8205 26.6804C75.5196 26.7762 75.1885 26.84 74.8575 26.84H67.0026C66.5813 26.84 66.19 26.8081 65.859 26.7123C65.5279 26.6166 65.1969 26.5209 64.926 26.3613C64.6251 26.2017 64.3542 26.0103 64.1435 25.7869C63.9329 25.5635 63.7222 25.2763 63.5717 24.9891C63.3912 24.67 63.2407 24.287 63.1203 23.8722C62.9999 23.4573 62.9397 23.0425 62.8795 22.6595C62.8193 22.2447 62.7893 21.7979 62.7893 21.383C62.7893 20.9682 62.7592 20.5533 62.7592 20.1704C62.7592 19.8194 62.7592 19.4364 62.7592 19.0535C62.7592 18.6705 62.7893 18.2557 62.8193 17.8408C62.8494 17.426 62.9397 17.043 62.9999 16.6601C63.0601 16.2771 63.1805 15.9261 63.331 15.607C63.4814 15.256 63.6921 14.9368 63.963 14.6496C64.2338 14.3624 64.5047 14.139 64.8658 13.9476C65.1367 13.788 65.4677 13.6923 65.8289 13.5965C66.19 13.5008 66.5813 13.4689 67.0026 13.4689H75.7603C75.9108 13.4689 76.0914 13.4051 76.2419 13.3093C76.3923 13.2136 76.5729 13.0859 76.6933 12.8945C76.7836 12.7987 76.8739 12.6711 76.9341 12.5115C76.9942 12.352 77.0243 12.2243 77.0243 12.0967C77.0243 11.9371 76.9942 11.8095 76.904 11.6499C76.8137 11.4903 76.7535 11.3627 76.6331 11.267C76.5127 11.1393 76.3923 11.0436 76.2419 10.9798C76.0914 10.9159 75.971 10.8521 75.8205 10.8521H64.1736V7.11841H80.395C80.8765 7.11841 81.2979 7.15032 81.6891 7.24606C82.0804 7.34179 82.4415 7.46944 82.7725 7.629C83.1638 7.78856 83.4647 8.04385 83.7356 8.29915C84.0065 8.55445 84.2472 8.87356 84.4278 9.19268C84.6084 9.47989 84.7889 9.79901 84.9093 10.15C85.0297 10.5011 85.1501 10.8202 85.2103 11.1712C85.3306 11.6499 85.3908 12.1286 85.451 12.6073C85.5112 13.0859 85.5112 13.5646 85.5112 13.9795ZM76.9942 17.3941H72.8411C72.6605 17.3941 72.4799 17.4579 72.2994 17.5536C72.1188 17.6493 71.9683 17.777 71.8178 17.9366C71.6975 18.0961 71.6072 18.2557 71.4868 18.4471C71.3664 18.6386 71.3363 18.7663 71.3363 18.9577V21.766C71.3363 21.8936 71.3664 22.0213 71.4266 22.1489C71.4868 22.2766 71.547 22.4042 71.6373 22.5319C71.7577 22.6595 71.9081 22.7553 72.0586 22.8829C72.2091 23.0106 72.3897 23.0425 72.51 23.0425H75.9108C76.0312 23.0425 76.1516 23.0106 76.302 22.9148C76.4525 22.8191 76.5729 22.7233 76.6933 22.5957C76.7836 22.5 76.8739 22.3723 76.9341 22.2447C76.9942 22.117 77.0243 21.9894 77.0243 21.8617V17.3941H76.9942Z" fill="#021112"/>
<path d="M97.219 26.904H88.6117V7.21436H97.219V8.96951C97.3393 8.77804 97.4898 8.58657 97.6704 8.3951C97.7306 8.29936 97.8209 8.20363 97.9413 8.10789C98.0616 8.01215 98.1519 7.94833 98.2422 7.91642C98.3927 7.82068 98.5131 7.72495 98.6635 7.62921C98.814 7.53347 98.9344 7.46965 99.0849 7.43774C99.2353 7.37392 99.4159 7.342 99.5664 7.31009C99.7169 7.27818 99.8674 7.24627 100.018 7.24627H105.134V12.7032H100.62C100.168 12.7032 99.747 12.767 99.3858 12.8628C98.9946 12.9585 98.6334 13.0862 98.3626 13.2776C98.2121 13.3414 98.0616 13.4372 97.9413 13.5648C97.8209 13.6925 97.7306 13.8201 97.6102 13.9478C97.4597 14.1073 97.3694 14.2669 97.3092 14.4584C97.2491 14.6498 97.219 14.8413 97.219 15.0647V26.904Z" fill="#021112"/>
<path d="M116.148 14.0438L123.521 7.24656H128.938L123.852 11.9695L131.767 26.9362H121.565L117.532 17.7137L116.118 19.1816V27.0001L107.57 26.9682V0.162109H116.118V14.0438H116.148Z" fill="#021112"/>
</svg>
